# xmcd
# 
# Track frame offsets:
#     150
#     11276
#     24742
#     38809
#     52288
#     64030
#     78972
#     93170
#     111625
#     124856
#     140817
#     155602
#     169721
#     183592
#     194499
#     211687
# 
# Disc length: 3034
# 
# Revision: 1
# Processed by: cddbd v1.5.2PL0 Copyright (c) Steve Scherf et al.
# Submitted via: fre:ac v1.1beta1pre5
# 
DISCID=e20bd810
DTITLE=Five Gentlemen - Sommersprossen
DYEAR=2003
DGENRE=A Cappella
TTITLE0=Five Gentlemen (P. Igelhoff - H.F. Beckmann, 1936) - Wenn ich vergnügt bin, muß ich singen
TTITLE1=Five Gentlemen (H.J. Bach - Axelson, 1934) - Kannst Du pfeifen, Johanna?
TTITLE2=Five Gentlemen (P. Igelhoff , A. Steimel - H. Käutner, A.v. Pinell, 1942) - Wir machen Musik
TTITLE3=Five Gentlemen (A. Dvorak - Lengsfelder, 1933) - Eine kleine Frühlingsweise
TTITLE4=Five Gentlemen (E. Bootz - H. F. Beckmann, 1938) - Oh, ich glaub', ich hab' mich verliebt
TTITLE5=Five Gentlemen (M. Brodszky - F. Rotter, 1936) - Du paßt so gut zu mir, wie Zucker zum Kaffee
TTITLE6=Five Gentlemen (H. May - Schwabach, 1932) - Maskenball im Gänsestall
TTITLE7=Five Gentlemen (H. Lang - J. Petrak, K. Stift, 1936) - Sommersprossen
TTITLE8=Five Gentlemen (A.Steimel - R.- M.Siegel, 1940) - Die Männer sind schon die Liebe wert
TTITLE9=Five Gentlemen (W. R. Heymann - R. Gilbert, 1932) - Irgendwo auf der Welt
TTITLE10=Five Gentlemen (E.Bootz - G.Karlick, 1932) - Schöne Isabella von Kastilien
TTITLE11=Five Gentlemen (F. Hollaender - F. Hollaender, 1930) - Guck' doch nicht immer nach dem Tango-Geiger
TTITLE12=Five Gentlemen (W. R. Heymann - R. Gilbert, 1931) - Das ist die Liebe der Matrosen
TTITLE13=Five Gentlemen (P.Kreuder - H.F.Beckmann, 1936) - Ich wollt' ich wär' ein Huhn
TTITLE14=Five Gentlemen (M. Ager - Ch. Amberg, 1932) - Auf  Wiedersehn - My Dear
TTITLE15=Five Gentlemen (G. Winkler - R.M.Siegel, 1939) - Das Nachtgespenst
EXTD=
EXTT0=
EXTT1=
EXTT2=
EXTT3=
EXTT4=
EXTT5=
EXTT6=
EXTT7=
EXTT8=
EXTT9=
EXTT10=
EXTT11=
EXTT12=
EXTT13=
EXTT14=
EXTT15=
PLAYORDER=
